<?xml version="1.0" encoding="UTF-8" standalone="no"?>
<!DOCTYPE svg PUBLIC "-//W3C//DTD SVG 1.1//EN" "http://www.w3.org/Graphics/SVG/1.1/DTD/svg11.dtd">
<svg width="100%" height="100%" viewBox="0 0 300 300" version="1.1" xmlns="http://www.w3.org/2000/svg" xmlns:xlink="http://www.w3.org/1999/xlink" xml:space="preserve" xmlns:serif="http://www.serif.com/" style="fill-rule:evenodd;clip-rule:evenodd;stroke-linejoin:round;stroke-miterlimit:2;">
    <g transform="matrix(0.893016,0,0,0.893016,-38.483973,-94.209817)">
        <g transform="matrix(0.396423,0,0,0.396423,121.390781,271.046159)">
            <path d="M0,-260.485C-10.975,-244.77 -20.17,-226.993 -24.391,-208.35C-27.76,-193.439 -70.604,-193.045 -66.526,-211.011C-62.889,-227.072 -55.552,-242.393 -46.766,-256.595C-58.984,-256.123 -71.376,-255.304 -83.721,-254.029C-85.138,-230.867 -86.382,-207.689 -87.406,-184.495C-70.762,-186.321 -54.134,-187.345 -38.215,-188.306C-23.194,-189.203 -28.406,-145.933 -45.868,-144.894C-59.85,-144.06 -74.462,-143.052 -89.122,-141.414C-90.948,-87.359 -91.862,-33.272 -91.909,20.784C-91.925,37.679 -135.068,40.388 -135.053,24.562C-135.005,-28.265 -134.139,-81.14 -132.407,-133.983C-143.776,-131.195 -154.876,-127.763 -165.316,-123.212C-180.794,-116.473 -178.968,-159.806 -164.277,-166.198C-153.57,-170.843 -142.264,-174.355 -130.691,-177.157C-129.683,-200.477 -128.455,-223.797 -127.054,-247.085C-140.312,-243.999 -153.176,-239.984 -165.316,-234.724C-180.826,-228.001 -178.983,-271.334 -164.277,-277.711C-114.362,-299.377 -53.001,-300.385 0.283,-300.794C10.203,-300.873 11.384,-283.128 6.393,-270.31C6.33,-270.137 6.251,-269.948 6.172,-269.775C4.645,-265.996 2.566,-262.736 0,-260.485" style="fill:white;fill-rule:nonzero;"/>
        </g>
        <g transform="matrix(0.396423,0,0,0.396423,153.485384,160.853336)">
            <path d="M0,260.499C-5.385,239.021 -9.069,217.041 -11.447,194.886C-17.525,206.476 -24.075,217.797 -31.649,228.456C-42.419,243.603 -56.229,260.531 -73.99,267.899C-75.753,268.64 -77.769,269.065 -79.878,269.317C-92.459,273.128 -109.938,270.687 -110.347,260.499C-113.858,173.708 -91.924,81.437 -69.045,-1.591C-64.936,-16.502 -22.06,-16.455 -26.894,1.086C-45.694,69.266 -63.487,142.831 -66.825,214.884C-66.447,214.301 -66.006,213.766 -65.645,213.183C-31.633,160.309 -15.95,95.719 -2.976,35.066C-0.976,25.744 16.565,22.06 28.437,25.036C29.555,25.319 30.61,25.666 31.618,26.059C31.665,26.075 31.712,26.091 31.76,26.106C37.066,28.248 40.42,32.074 39.176,37.727C23.493,108.772 25.398,185.99 43.128,256.721C46.875,271.679 4.125,277.001 0,260.499" style="fill:white;fill-rule:nonzero;"/>
        </g>
        <g transform="matrix(0.396423,0,0,0.396423,281.792874,254.073785)">
            <path d="M0,-174.905C-10.975,-159.175 -20.17,-141.398 -24.391,-122.755C-27.775,-107.843 -70.604,-107.449 -66.542,-125.416C-62.904,-141.477 -55.567,-156.781 -46.797,-170.953C-59.063,-170.481 -71.486,-169.662 -83.862,-168.386C-85.327,-145.208 -86.603,-122.03 -87.704,-98.821C-70.982,-100.679 -54.26,-101.718 -38.247,-102.663C-23.225,-103.56 -28.437,-60.291 -45.899,-59.252C-60.008,-58.417 -74.762,-57.409 -89.563,-55.74C-91.011,-15.967 -91.893,23.839 -91.94,63.614C-91.972,80.509 -135.1,83.217 -135.084,67.392C-135.036,28.846 -134.171,-9.716 -132.816,-48.261C-144.059,-45.506 -155.019,-42.089 -165.348,-37.586C-180.826,-30.846 -179,-74.178 -164.309,-80.572C-153.695,-85.185 -142.484,-88.68 -131.006,-91.467C-129.919,-114.803 -128.644,-138.138 -127.18,-161.442C-140.406,-158.372 -153.223,-154.357 -165.332,-149.113C-180.842,-142.39 -179,-185.722 -164.292,-192.099C-128.911,-207.452 -87.814,-212.364 -47.883,-214.113C-53.395,-219.277 -59.362,-223.938 -65.85,-227.622C-68.573,-229.181 -71.581,-230.425 -74.478,-231.732C-75.014,-231.968 -75.375,-232.141 -75.675,-232.283C-82.587,-234.503 -89.972,-239.951 -83.815,-247.493C-77.722,-254.973 -63.456,-256.768 -54.686,-254.327C-32.043,-248.013 -13.069,-232.504 2.047,-214.868C10.267,-212.837 11.038,-196.666 6.377,-184.683C6.314,-184.51 6.235,-184.337 6.156,-184.148C4.613,-180.384 2.535,-177.125 0,-174.905M-195.753,-98.616C-197.58,-44.561 -198.493,9.527 -198.541,63.582C-198.556,80.477 -241.7,83.186 -241.684,67.361C-241.636,14.533 -240.771,-38.342 -239.039,-91.184C-250.407,-88.397 -261.508,-84.965 -271.948,-80.414C-287.426,-73.675 -285.599,-117.008 -270.908,-123.4C-260.201,-128.061 -248.896,-131.557 -237.306,-134.36C-236.315,-157.679 -235.086,-180.999 -233.685,-204.287C-246.943,-201.201 -259.808,-197.185 -271.948,-191.926C-287.457,-185.203 -285.615,-228.535 -270.908,-234.913C-220.994,-256.579 -159.632,-257.587 -106.348,-257.996C-90.854,-258.122 -96.616,-214.711 -114,-214.569C-138.296,-214.396 -164.435,-213.892 -190.352,-211.231C-191.769,-188.069 -193.013,-164.891 -194.037,-141.697C-177.393,-143.524 -160.766,-144.547 -144.847,-145.492C-129.824,-146.389 -135.036,-103.119 -152.499,-102.08C-166.481,-101.246 -181.078,-100.238 -195.753,-98.616" style="fill:white;fill-rule:nonzero;"/>
        </g>
        <g transform="matrix(0.396423,0,0,0.396423,311.006591,200.764369)">
            <path d="M0,48.198C-7.243,25.933 -13.652,3.401 -19.101,-19.399C-26.848,6.692 -35.696,32.373 -45.806,57.63C-30.453,54.874 -15.148,51.804 0,48.198M44.891,162.969C33.507,138.044 23.114,112.85 13.651,87.421C-12.455,94.318 -39.16,99.513 -65.818,103.876C-74.399,122.503 -83.438,140.972 -93.185,159.348C-100.633,173.393 -143.099,171.315 -135.336,156.687C-126.156,139.383 -117.622,121.968 -109.481,104.458C-115.891,93.578 -110.631,67.912 -98.947,66.18C-96.696,65.849 -94.429,65.487 -92.177,65.172C-68.038,6.818 -49.82,-53.284 -38.83,-116.976C-37.476,-124.818 -24.91,-128.707 -13.81,-127.967C-3.701,-128.392 6.219,-125.227 7.101,-117.527C13.194,-64.464 24.957,-13.179 40.907,36.908C47.348,34.83 53.709,32.641 60.022,30.295C76.319,24.233 73.989,67.723 58.983,73.281C57.314,73.895 55.614,74.415 53.945,75.013C63.565,101.293 74.194,127.305 85.94,153.05C93.593,169.788 51.236,176.905 44.891,162.969" style="fill:white;fill-rule:nonzero;"/>
        </g>
    </g>
    <g transform="matrix(1.256922,0,0,1.256922,-22.179384,-67.863114)">
        <path d="M169.609,192.74C169.609,187.434 171.554,182.877 175.443,179.068C179.317,175.259 183.972,173.355 189.408,173.355C194.779,173.355 199.386,175.276 203.227,179.117C207.084,182.958 209.013,187.572 209.013,192.96C209.013,198.379 207.076,202.977 203.202,206.753C199.312,210.546 194.617,212.442 189.115,212.442C184.249,212.442 179.879,210.757 176.005,207.388C171.741,203.661 169.609,198.778 169.609,192.74ZM175.346,192.813C175.346,196.98 176.746,200.406 179.545,203.091C182.328,205.777 185.543,207.12 189.189,207.12C193.144,207.12 196.48,205.752 199.198,203.018C201.916,200.251 203.276,196.882 203.276,192.911C203.276,188.891 201.933,185.521 199.247,182.803C196.578,180.069 193.274,178.702 189.335,178.702C185.413,178.702 182.1,180.069 179.399,182.803C176.697,185.505 175.346,188.842 175.346,192.813Z" style="fill:white;fill-rule:nonzero;"/>
        <g transform="matrix(1,0,0,1,-6,0)">
            <path d="M237.48,179.678L232.865,182.413C232.003,180.915 231.181,179.939 230.4,179.483C229.586,178.962 228.536,178.702 227.25,178.702C225.671,178.702 224.361,179.149 223.319,180.044C222.278,180.923 221.757,182.03 221.757,183.365C221.757,185.204 223.124,186.685 225.859,187.808L229.618,189.346C232.678,190.583 234.916,192.093 236.332,193.875C237.748,195.657 238.456,197.842 238.456,200.43C238.456,203.897 237.301,206.762 234.989,209.024C232.662,211.303 229.773,212.442 226.322,212.442C223.051,212.442 220.349,211.474 218.217,209.537C216.117,207.6 214.807,204.874 214.286,201.358L220.048,200.088C220.308,202.302 220.764,203.832 221.415,204.678C222.587,206.306 224.296,207.12 226.542,207.12C228.316,207.12 229.789,206.526 230.961,205.337C232.133,204.149 232.719,202.644 232.719,200.821C232.719,200.088 232.617,199.417 232.414,198.807C232.21,198.196 231.893,197.635 231.462,197.122C231.03,196.609 230.473,196.129 229.789,195.682C229.106,195.234 228.292,194.807 227.348,194.4L223.71,192.886C218.551,190.705 215.971,187.515 215.971,183.316C215.971,180.484 217.053,178.116 219.218,176.211C221.383,174.291 224.076,173.331 227.299,173.331C231.645,173.331 235.038,175.446 237.48,179.678Z" style="fill:white;fill-rule:nonzero;"/>
        </g>
    </g>
</svg>
